<svg xmlns="http://www.w3.org/2000/svg" viewBox="0 0 100 100" x="0px" y="0px"><title>BS-Question-Light-Rounded-Octagon</title><path d="M65.33,8a5,5,0,0,1,3.54,1.46L90.54,31.14A5,5,0,0,1,92,34.67V65.33a5,5,0,0,1-1.46,3.54L68.86,90.54A5,5,0,0,1,65.33,92H34.67a5,5,0,0,1-3.54-1.46L9.46,68.86A5,5,0,0,1,8,65.33V34.67a5,5,0,0,1,1.46-3.54L31.14,9.46A5,5,0,0,1,34.67,8H65.33m0-3H34.67A8,8,0,0,0,29,7.34L7.34,29A8,8,0,0,0,5,34.67V65.33A8,8,0,0,0,7.34,71L29,92.66A8,8,0,0,0,34.67,95H65.33A8,8,0,0,0,71,92.66L92.66,71A8,8,0,0,0,95,65.33V34.67A8,8,0,0,0,92.66,29L71,7.34A8,8,0,0,0,65.33,5Z"></path><path d="M46.12,60.18v-4.1c0-6.34.37-7.24,5.15-12.16,3.81-3.88,4.85-5.67,4.85-8.36,0-3.51-2.31-5.6-6.19-5.6-4.4,0-6.72,2.24-7.16,7.16H38.13C38.51,29.21,42.76,25,50.37,25c7.09,0,11.49,4,11.49,10.52,0,4-1.27,6.19-6.34,11.19-4,4-4.25,4.7-4.25,10.82v2.61Zm6.79,10.6a4.29,4.29,0,1,1-4.25-4.33A4.32,4.32,0,0,1,52.91,70.78Z"></path></svg>